<?xml version="1.0" standalone="no"?>
<!DOCTYPE svg PUBLIC "-//W3C//DTD SVG 20010904//EN"
 "http://www.w3.org/TR/2001/REC-SVG-20010904/DTD/svg10.dtd">
<svg version="1.0" xmlns="http://www.w3.org/2000/svg"
 width="428.000000pt" height="428.000000pt" viewBox="0 0 428.000000 428.000000"
 preserveAspectRatio="xMidYMid meet">
<metadata>
Created by potrace 1.11, written by Peter Selinger 2001-2013
</metadata>
<g transform="translate(0.000000,428.000000) scale(0.100000,-0.100000)"
fill="#000000" stroke="none">
<path d="M2035 4014 c-224 -30 -363 -70 -525 -150 -376 -185 -646 -511 -765
-921 -145 -501 1 -1066 372 -1438 52 -52 116 -110 141 -127 26 -18 53 -38 60
-45 43 -42 276 -157 397 -196 159 -52 235 -62 450 -62 219 0 293 11 460 66
317 105 586 309 770 584 53 80 134 241 165 330 18 54 27 86 61 235 6 25 13
117 16 205 6 190 -15 341 -72 514 -121 362 -372 658 -708 836 -103 54 -259
114 -352 134 -27 6 -72 15 -99 21 -50 11 -318 22 -371 14z m388 -48 c115 -21
279 -77 391 -133 400 -201 683 -575 773 -1022 27 -132 24 -422 -5 -559 -62
-285 -191 -522 -396 -728 -164 -164 -335 -272 -552 -347 -175 -61 -245 -72
-469 -72 -276 0 -406 30 -644 147 -394 194 -679 563 -772 998 -28 128 -33 417
-10 540 33 178 129 415 228 562 228 337 591 562 1003 623 116 17 328 13 453
-9z"/>
<path d="M2006 3930 c-478 -60 -877 -341 -1086 -764 -97 -197 -137 -351 -147
-566 -11 -263 42 -494 169 -726 197 -361 533 -609 949 -700 120 -27 428 -27
548 0 372 81 668 279 888 593 83 118 165 315 205 494 33 150 33 418 0 568
-124 554 -543 969 -1092 1081 -113 23 -331 33 -434 20z m359 -35 c457 -69 841
-355 1039 -775 95 -201 132 -392 124 -633 -8 -211 -46 -362 -140 -551 -71
-143 -138 -237 -258 -357 -262 -264 -589 -400 -965 -401 -644 -1 -1176 426
-1336 1072 -21 84 -23 118 -23 295 0 227 14 306 85 490 231 596 846 955 1474
860z"/>
<path d="M1928 3843 c6 -2 18 -2 25 0 6 3 1 5 -13 5 -14 0 -19 -2 -12 -5z"/>
<path d="M1988 3813 c7 -12 12 -33 12 -47 0 -14 4 -26 8 -26 14 0 1 69 -16 82
-13 11 -14 10 -4 -9z"/>
<path d="M2045 3819 c-4 -6 -5 -12 -2 -15 2 -3 7 2 10 11 7 17 1 20 -8 4z"/>
<path d="M2310 3810 c0 -5 5 -10 10 -10 6 0 10 5 10 10 0 6 -4 10 -10 10 -5 0
-10 -4 -10 -10z"/>
<path d="M2120 3780 c0 -18 4 -29 10 -25 6 3 10 15 10 25 0 10 -4 22 -10 25
-6 4 -10 -7 -10 -25z"/>
<path d="M1747 3770 c3 -11 9 -20 14 -20 11 0 11 3 3 24 -9 23 -23 20 -17 -4z"/>
<path d="M1874 3764 c3 -9 6 -22 6 -30 0 -9 4 -13 9 -10 11 7 2 56 -11 56 -6
0 -7 -7 -4 -16z"/>
<path d="M2416 3765 c-3 -8 -1 -15 4 -15 6 0 10 7 10 15 0 8 -2 15 -4 15 -2 0
-6 -7 -10 -15z"/>
<path d="M2550 3761 c0 -25 6 -27 13 -6 4 8 2 17 -3 20 -6 4 -10 -3 -10 -14z"/>
<path d="M1660 3751 c-9 -18 1 -71 15 -71 2 0 0 12 -5 26 -7 17 -7 32 0 45 6
10 8 19 6 19 -3 0 -10 -9 -16 -19z"/>
<path d="M2308 3763 c7 -3 16 -2 19 1 4 3 -2 6 -13 5 -11 0 -14 -3 -6 -6z"/>
<path d="M2602 3750 c-12 -12 -22 -31 -21 -43 1 -21 1 -20 12 4 7 14 18 33 26
43 19 22 9 20 -17 -4z"/>
<path d="M2360 3740 c-9 -16 -9 -25 -1 -31 6 -5 9 -6 6 -3 -2 4 0 15 6 26 6
11 8 22 6 25 -3 2 -11 -5 -17 -17z"/>
<path d="M2510 3735 c0 -8 5 -15 10 -15 6 0 10 7 10 15 0 8 -4 15 -10 15 -5 0
-10 -7 -10 -15z"/>
<path d="M2462 3700 c0 -14 2 -19 5 -12 2 6 2 18 0 25 -3 6 -5 1 -5 -13z"/>
<path d="M1600 3700 c0 -6 7 -10 15 -10 8 0 15 2 15 4 0 2 -7 6 -15 10 -8 3
-15 1 -15 -4z"/>
<path d="M1759 3693 c-12 -16 -12 -17 2 -5 14 10 17 9 22 -8 3 -11 10 -20 15
-20 6 0 6 9 -1 25 -14 30 -20 31 -38 8z"/>
<path d="M2757 3696 c-4 -10 -1 -13 8 -9 8 3 12 9 9 14 -7 12 -11 11 -17 -5z"/>
<path d="M2827 3689 c3 -10 9 -16 14 -13 13 8 11 21 -5 27 -10 4 -12 0 -9 -14z"/>
<path d="M1938 3693 c7 -3 16 -2 19 1 4 3 -2 6 -13 5 -11 0 -14 -3 -6 -6z"/>
<path d="M2686 3659 c-13 -19 -12 -49 1 -49 3 0 3 6 0 14 -3 7 1 23 9 35 8 11
13 21 10 21 -3 0 -12 -10 -20 -21z"/>
<path d="M2866 3663 c-6 -14 -5 -15 5 -6 7 7 10 15 7 18 -3 3 -9 -2 -12 -12z"/>
<path d="M1680 3654 c0 -8 5 -12 10 -9 6 4 8 11 5 16 -9 14 -15 11 -15 -7z"/>
<path d="M1987 3656 c-455 -81 -797 -398 -913 -847 -24 -92 -27 -122 -27 -264
0 -213 27 -332 115 -510 271 -545 934 -776 1484 -515 129 60 208 114 304 206
163 156 274 355 327 587 21 90 23 355 5 439 -71 314 -233 557 -487 727 -185
124 -362 180 -590 186 -92 3 -167 0 -218 -9z m374 -31 c224 -39 438 -153 597
-319 220 -229 323 -501 309 -814 -22 -508 -372 -918 -882 -1033 -37 -9 -120
-14 -220 -13 -135 0 -174 3 -250 23 -188 49 -359 141 -491 264 -468 436 -473
1161 -12 1602 45 44 108 96 138 116 121 80 274 144 400 168 30 6 64 13 75 15
51 10 261 5 336 -9z"/>
<path d="M2025 3574 c-159 -32 -222 -52 -331 -106 -279 -138 -488 -415 -555
-733 -17 -78 -17 -313 -1 -390 83 -386 340 -678 704 -800 85 -28 243 -55 325
-55 130 0 344 50 458 107 308 156 521 446 575 785 18 114 8 300 -23 419 -103
395 -426 694 -826 764 -75 14 -275 19 -326 9z m400 -52 c302 -86 525 -272 659
-553 64 -132 87 -227 93 -384 6 -152 -6 -244 -47 -371 -52 -156 -144 -299
-270 -417 -83 -79 -135 -115 -237 -166 -615 -306 -1339 61 -1458 739 -34 194
-7 406 76 589 68 150 210 321 344 412 86 59 227 124 320 148 44 11 89 22 100
25 11 3 94 3 185 1 127 -2 181 -8 235 -23z"/>
<path d="M2160 3533 c0 -18 -213 -236 -310 -318 -164 -138 -256 -195 -341
-210 -46 -9 -116 10 -129 35 -9 16 -5 22 21 36 45 23 123 24 146 2 24 -25 9
-33 -29 -15 -40 19 -90 12 -86 -12 4 -18 61 -26 115 -16 63 12 64 68 3 100
-25 13 -30 13 -30 1 0 -9 -20 -17 -62 -25 -159 -28 -144 -121 19 -121 113 0
198 45 424 225 l112 88 51 -27 51 -28 -38 37 c-26 25 -36 40 -29 47 7 7 22 -3
47 -29 l37 -38 -23 43 c-12 23 -27 42 -33 42 -6 0 10 20 34 45 24 25 49 45 55
45 6 0 30 -20 54 -44 l43 -44 -27 -43 -27 -44 34 33 c30 28 58 41 58 27 0 -3
-17 -21 -37 -41 l-38 -36 49 26 c45 24 51 25 65 11 14 -13 13 -15 -4 -15 -11
-1 -31 -8 -45 -16 -24 -15 -24 -15 15 -9 22 4 44 10 49 15 4 4 56 -29 115 -74
207 -162 274 -196 382 -196 176 0 184 96 11 125 -24 4 -46 13 -49 21 -4 11 -9
11 -32 0 -37 -20 -54 -58 -36 -83 19 -25 148 -27 153 -1 5 25 -52 34 -84 13
-31 -20 -55 -6 -28 16 34 28 174 3 174 -31 0 -23 -55 -45 -111 -44 -78 1 -161
43 -292 147 -102 80 -306 277 -365 352 -18 22 -32 34 -32 28z"/>
<path d="M2160 3373 c0 -10 3 -36 7 -58 l7 -40 7 45 c3 25 4 51 2 58 -7 18
-23 15 -23 -5z"/>
<path d="M2110 3365 c1 -11 10 -36 20 -55 l20 -35 -6 40 c-7 45 -34 85 -34 50z"/>
<path d="M2217 3370 c-10 -25 -26 -90 -21 -90 10 0 35 64 31 83 -3 17 -5 18
-10 7z"/>
<path d="M1990 3262 c0 -9 92 -33 99 -27 5 5 -68 35 -85 35 -8 0 -14 -4 -14
-8z"/>
<path d="M1950 3210 c-13 -9 -13 -10 0 -11 32 -2 84 3 104 11 15 6 6 9 -34 9
-30 0 -62 -4 -70 -9z"/>
<path d="M2172 3195 c0 -16 2 -22 5 -12 2 9 2 23 0 30 -3 6 -5 -1 -5 -18z"/>
<path d="M2295 3210 c46 -12 107 -12 100 0 -3 6 -34 9 -68 9 -50 -1 -56 -3
-32 -9z"/>
<path d="M2005 3178 c-61 -15 -95 -29 -95 -39 0 -15 23 -10 91 17 90 36 91 43
4 22z"/>
<path d="M2329 3164 c30 -13 68 -27 84 -30 58 -10 10 23 -58 40 -85 21 -90 20
-26 -10z"/>
<path d="M1979 3125 c-91 -46 -127 -75 -93 -75 11 0 60 27 109 60 50 33 86 60
80 59 -5 0 -48 -20 -96 -44z"/>
<path d="M2276 3161 c31 -28 170 -111 187 -111 36 0 -2 30 -98 76 -92 45 -106
51 -89 35z"/>
<path d="M2023 3102 c-34 -26 -87 -64 -117 -86 -52 -36 -73 -62 -61 -74 8 -9
77 44 165 127 47 44 83 80 80 80 -3 0 -33 -21 -67 -47z"/>
<path d="M2261 3100 c18 -25 36 -47 39 -50 3 -3 38 -49 79 -103 41 -54 84
-105 95 -112 15 -11 16 -15 5 -19 -90 -28 -115 -39 -154 -66 -25 -17 -45 -34
-45 -37 0 -3 10 2 23 11 12 9 51 31 87 48 52 26 80 33 148 36 48 3 108 -1 139
-8 l55 -12 -6 -36 c-3 -21 -22 -143 -41 -272 -61 -406 -53 -371 -83 -362 -15
4 -65 7 -112 6 -106 -1 -180 -28 -247 -88 l-48 -44 -48 44 c-67 60 -142 87
-242 88 -44 1 -94 -2 -112 -6 -31 -7 -32 -7 -37 35 -4 23 -25 174 -49 335 -51
348 -62 317 113 317 105 0 120 -2 175 -28 32 -15 74 -39 91 -52 42 -32 54 -32
17 -1 -45 38 -118 73 -178 87 -51 11 -67 22 -47 31 10 4 222 274 222 282 0 14
-256 -257 -264 -280 -8 -20 -17 -24 -55 -25 -25 0 -64 -6 -86 -13 -32 -10 -40
-16 -38 -34 2 -17 -2 -22 -22 -22 -21 0 -25 -5 -25 -30 0 -26 -3 -30 -29 -30
-25 0 -28 -3 -23 -25 4 -23 1 -25 -33 -25 -32 0 -36 -2 -30 -20 6 -18 2 -20
-35 -20 -32 0 -41 -3 -37 -14 23 -60 299 -560 308 -558 6 2 9 -4 6 -12 -5 -12
2 -14 31 -10 20 2 53 9 72 14 l35 10 -40 -5 c-22 -3 -50 -8 -62 -11 -13 -4
-23 -2 -23 4 0 15 85 33 195 41 56 4 107 11 115 15 8 4 6 0 -4 -8 -19 -16 -19
-16 5 -16 14 0 34 -6 44 -14 18 -13 15 -13 -25 -6 -25 5 -52 9 -60 9 -29 1 12
-16 57 -23 24 -3 59 -15 79 -27 l37 -20 30 21 c16 12 56 27 88 33 32 7 59 16
59 20 0 8 -47 3 -88 -9 -9 -3 -6 2 8 10 14 8 34 16 45 16 15 0 17 2 6 9 -18
11 78 35 139 34 l45 -1 -45 8 -45 7 60 1 c64 2 135 -13 135 -28 0 -6 -10 -6
-26 0 -14 6 -37 10 -52 9 -18 0 -11 -5 23 -13 55 -13 75 -23 75 -35 0 -5 -19
-2 -42 6 -24 8 -88 16 -143 18 l-100 4 90 -8 c134 -12 218 -38 173 -53 -7 -3
-3 -7 9 -10 15 -4 24 1 32 19 8 18 8 22 0 17 -6 -4 -10 -2 -8 3 2 6 53 130
114 277 l109 266 32 0 31 0 -134 -265 c-74 -146 -132 -265 -129 -265 5 0 279
518 284 537 2 9 -9 13 -36 13 -35 0 -39 2 -35 20 5 17 0 20 -32 20 -35 0 -37
2 -31 25 6 23 3 25 -25 25 -27 0 -30 3 -27 28 2 21 -1 28 -18 30 -12 2 -24 11
-27 21 -6 23 -75 41 -156 41 -59 0 -61 1 -75 33 -8 17 -74 91 -147 162 -73 72
-117 110 -98 85z m505 -377 c-2 -10 -18 -85 -36 -168 -45 -219 -58 -273 -59
-249 -1 12 5 59 13 105 8 46 22 139 32 207 15 107 20 122 36 122 14 0 18 -5
14 -17z m-1101 -25 c9 -57 65 -427 65 -434 0 -4 -2 -5 -4 -3 -5 5 -96 434 -96
454 0 30 29 15 35 -17z m1155 -23 c0 -8 -4 -24 -9 -37 -17 -41 -133 -440 -129
-444 2 -2 35 98 73 221 l68 225 29 -2 c15 -1 28 -6 28 -12 0 -11 -220 -559
-227 -566 -7 -6 2 39 12 64 7 15 5 17 -5 11 -10 -6 -12 -4 -7 9 7 18 117 524
117 538 0 4 11 8 25 8 15 0 25 -6 25 -15z m-1191 -42 c54 -236 104 -477 107
-517 2 -27 6 -51 8 -53 3 -3 22 1 43 8 21 7 82 13 136 13 73 1 89 3 65 10 -32
8 -145 2 -200 -10 -17 -4 -28 -2 -28 4 0 31 179 39 258 11 48 -17 23 -29 -63
-29 -38 0 -97 -7 -130 -14 -33 -8 -63 -12 -66 -10 -4 2 -9 0 -11 -5 -3 -8
-238 565 -238 580 0 3 14 6 31 5 34 -1 29 11 130 -329 18 -59 34 -105 36 -103
3 2 -25 105 -62 228 -36 122 -69 231 -71 241 -4 13 1 17 19 17 22 0 27 -7 36
-47z m-118 -65 c16 -29 219 -522 219 -533 0 -5 -63 113 -140 263 -77 149 -140
276 -140 280 0 14 52 6 61 -10z"/>
<path d="M2671 2164 c0 -11 3 -14 6 -6 3 7 2 16 -1 19 -3 4 -6 -2 -5 -13z"/>
<path d="M2266 3132 c5 -4 52 -47 104 -94 98 -88 161 -126 128 -77 -14 22
-221 179 -235 179 -4 0 -3 -4 3 -8z"/>
<path d="M2131 3052 c-1 -16 6 -26 20 -29 12 -4 22 -17 26 -34 3 -16 10 -29
15 -29 5 0 7 9 3 20 -4 13 1 25 14 37 21 18 29 39 11 28 -6 -3 -13 1 -16 9 -8
20 -33 21 -40 1 -8 -20 -21 -19 -27 3 -3 12 -5 11 -6 -6z"/>
<path d="M2113 2833 c-37 -5 -39 -12 -18 -53 21 -40 42 -38 60 6 18 44 19 54
3 52 -7 0 -28 -3 -45 -5z m17 -33 c0 -5 -4 -10 -9 -10 -6 0 -13 5 -16 10 -3 6
1 10 9 10 9 0 16 -4 16 -10z"/>
<path d="M2230 2667 c0 -22 29 -75 45 -81 10 -4 21 8 34 37 11 23 18 43 17 44
-2 2 -24 5 -49 9 -36 4 -47 2 -47 -9z m68 -28 c-19 -13 -28 -11 -28 5 0 9 7
12 21 9 16 -4 17 -8 7 -14z"/>
<path d="M1955 2568 c-3 -7 -6 -62 -7 -123 l-3 -110 -30 0 -30 0 -3 70 c-3 76
-13 95 -47 95 -32 0 -51 -25 -35 -45 7 -8 19 -15 26 -15 22 0 19 -96 -3 -109
-13 -8 5 -10 69 -11 48 0 89 4 92 9 3 5 7 62 8 127 3 106 1 119 -15 122 -9 2
-19 -2 -22 -10z m-105 -98 c0 -14 -15 -19 -29 -10 -17 10 -5 31 14 23 8 -3 15
-9 15 -13z"/>
<path d="M2448 2484 c-27 -14 -39 -44 -17 -44 17 0 -1 -63 -22 -78 -24 -17
-24 -29 1 -42 36 -19 60 3 60 56 0 30 5 46 15 50 24 9 17 24 -10 24 -28 0 -34
15 -9 24 25 10 59 7 72 -6 7 -7 12 -40 12 -80 0 -61 2 -68 20 -68 18 0 20 7
20 74 0 66 -3 77 -22 90 -28 20 -84 20 -120 0z m-8 -139 c0 -8 -7 -15 -15 -15
-16 0 -20 12 -8 23 11 12 23 8 23 -8z"/>
<path d="M2167 2452 c-13 -3 -16 -10 -10 -30 3 -15 10 -28 15 -30 4 -2 8 -9 8
-17 0 -23 28 -39 44 -26 21 18 57 91 51 101 -6 9 -68 10 -108 2z m53 -43 c-9
-16 -14 -18 -26 -8 -21 17 -17 29 11 29 23 0 24 -2 15 -21z"/>
<path d="M1998 2143 c7 -3 16 -2 19 1 4 3 -2 6 -13 5 -11 0 -14 -3 -6 -6z"/>
<path d="M2458 2043 c12 -2 30 -2 40 0 9 3 -1 5 -23 4 -22 0 -30 -2 -17 -4z"/>
<path d="M1898 2033 c12 -2 32 -2 45 0 12 2 2 4 -23 4 -25 0 -35 -2 -22 -4z"/>
<path d="M2545 2030 c17 -4 39 -8 50 -8 16 0 15 2 -5 8 -14 4 -36 8 -50 8 -22
0 -22 -1 5 -8z"/>
<path d="M2453 2023 c9 -2 23 -2 30 0 6 3 -1 5 -18 5 -16 0 -22 -2 -12 -5z"/>
<path d="M1913 2013 c9 -2 23 -2 30 0 6 3 -1 5 -18 5 -16 0 -22 -2 -12 -5z"/>
<path d="M2508 2013 c6 -2 18 -2 25 0 6 3 1 5 -13 5 -14 0 -19 -2 -12 -5z"/>
<path d="M1858 2003 c6 -2 18 -2 25 0 6 3 1 5 -13 5 -14 0 -19 -2 -12 -5z"/>
<path d="M2558 2001 c9 -5 1 -10 -27 -15 -22 -3 -42 -10 -45 -14 -3 -5 18 -3
47 5 29 8 68 11 87 9 l35 -5 -35 14 c-40 15 -84 20 -62 6z"/>
<path d="M1786 1990 c-16 -5 -34 -6 -40 -3 -8 4 -8 3 -1 -5 8 -9 22 -8 55 2
25 8 38 14 30 14 -8 0 -28 -4 -44 -8z"/>
<path d="M2248 1983 c7 -3 16 -2 19 1 4 3 -2 6 -13 5 -11 0 -14 -3 -6 -6z"/>
<path d="M2028 1973 c6 -2 18 -2 25 0 6 3 1 5 -13 5 -14 0 -19 -2 -12 -5z"/>
<path d="M2305 1960 c-3 -5 -32 -10 -63 -10 -31 0 -63 -4 -69 -8 -15 -9 114
-2 141 8 12 4 15 9 8 14 -6 3 -13 2 -17 -4z"/>
<path d="M2433 1953 c9 -2 23 -2 30 0 6 3 -1 5 -18 5 -16 0 -22 -2 -12 -5z"/>
<path d="M2122 1918 c-7 -7 -12 -21 -12 -33 0 -29 19 -45 50 -44 23 1 23 2 -5
8 -36 7 -47 47 -19 68 10 7 13 13 8 13 -6 0 -15 -5 -22 -12z"/>
<path d="M2248 1853 c7 -3 16 -2 19 1 4 3 -2 6 -13 5 -11 0 -14 -3 -6 -6z"/>
<path d="M2744 1844 c-18 -14 -18 -14 6 -3 31 14 36 19 24 19 -6 0 -19 -7 -30
-16z"/>
<path d="M2208 1843 c7 -3 16 -2 19 1 4 3 -2 6 -13 5 -11 0 -14 -3 -6 -6z"/>
<path d="M2290 1840 c8 -5 20 -10 25 -10 6 0 3 5 -5 10 -8 5 -19 10 -25 10 -5
0 -3 -5 5 -10z"/>
<path d="M2352 1823 c9 -2 28 -20 43 -39 25 -32 82 -71 91 -61 3 2 -9 10 -26
17 -17 7 -40 24 -51 39 l-21 26 24 6 c22 7 22 7 2 8 -12 1 -34 3 -50 5 -16 2
-21 1 -12 -1z"/>
<path d="M2688 1814 c-38 -20 -36 -28 2 -9 17 9 30 18 30 20 0 7 -1 6 -32 -11z"/>
<path d="M1720 1806 c0 -3 9 -10 20 -16 11 -6 20 -8 20 -6 0 3 -9 10 -20 16
-11 6 -20 8 -20 6z"/>
<path d="M2620 1797 c0 -27 -41 -66 -76 -73 -19 -3 -33 -9 -30 -11 12 -12 70
12 100 41 26 26 29 35 19 45 -10 9 -13 9 -13 -2z"/>
<path d="M1758 1737 c-35 -29 -37 -64 -4 -73 13 -3 34 -1 46 6 15 8 25 8 34 1
10 -8 11 -4 8 19 -2 17 2 38 9 48 13 15 12 16 -4 3 -15 -12 -20 -11 -35 3 -23
20 -21 20 -54 -7z m72 -33 c0 -15 -65 -38 -80 -29 -19 12 -10 40 17 57 26 15
29 15 45 1 10 -9 18 -22 18 -29z"/>
<path d="M1883 1738 c9 -7 20 -24 25 -36 8 -22 9 -23 23 -6 9 11 9 15 1 10 -7
-4 -15 0 -19 11 -7 19 -22 33 -37 33 -6 0 -2 -6 7 -12z"/>
<path d="M2334 1711 c7 -11 46 -35 46 -28 0 3 -12 12 -26 22 -15 9 -23 12 -20
6z"/>
<path d="M1981 1648 c5 -18 9 -36 9 -40 0 -12 -29 -9 -53 4 -28 16 -87 37 -87
31 0 -10 99 -47 135 -50 22 -1 58 -5 80 -8 41 -6 76 7 61 22 -5 4 -11 2 -13
-4 -3 -7 -19 -13 -37 -13 -42 0 -88 35 -84 63 2 11 -2 22 -9 24 -9 3 -10 -4
-2 -29z"/>
<path d="M2011 1666 c2 -2 15 -9 29 -15 24 -11 24 -11 6 3 -16 13 -49 24 -35
12z"/>
<path d="M2460 1640 c0 -5 5 -10 10 -10 6 0 10 5 10 10 0 6 -4 10 -10 10 -5 0
-10 -4 -10 -10z"/>
<path d="M2070 1636 c0 -2 8 -10 18 -17 15 -13 16 -12 3 4 -13 16 -21 21 -21
13z"/>
<path d="M2317 1628 c7 -8 10 -17 7 -21 -3 -3 4 -3 15 0 25 6 25 6 -9 23 -22
12 -24 11 -13 -2z"/>
<path d="M2200 1610 c0 -5 -10 -11 -22 -13 -22 -4 -21 -4 2 -5 34 -2 58 13 36
21 -9 4 -16 2 -16 -3z"/>
<path d="M1409 3643 c-13 -16 -12 -17 4 -4 16 13 21 21 13 21 -2 0 -10 -8 -17
-17z"/>
<path d="M2895 3640 c-15 -16 -21 -18 -34 -7 -14 11 -14 10 -2 -6 13 -17 15
-17 36 3 17 16 24 17 35 7 12 -10 12 -9 1 6 -16 21 -14 21 -36 -3z"/>
<path d="M2726 3635 c-3 -8 -1 -15 4 -15 6 0 10 7 10 15 0 8 -2 15 -4 15 -2 0
-6 -7 -10 -15z"/>
<path d="M1475 3630 c3 -5 11 -10 16 -10 6 0 7 5 4 10 -3 6 -11 10 -16 10 -6
0 -7 -4 -4 -10z"/>
<path d="M1465 3590 c3 -5 11 -10 16 -10 6 0 7 5 4 10 -3 6 -11 10 -16 10 -6
0 -7 -4 -4 -10z"/>
<path d="M2851 3584 c0 -11 3 -14 6 -6 3 7 2 16 -1 19 -3 4 -6 -2 -5 -13z"/>
<path d="M3014 3583 c17 -21 15 -28 -7 -24 -5 1 -6 -3 -2 -9 8 -13 10 -13 24
3 8 11 6 18 -12 33 l-22 19 19 -22z"/>
<path d="M2765 3580 c-3 -5 -2 -10 4 -10 5 0 13 5 16 10 3 6 2 10 -4 10 -5 0
-13 -4 -16 -10z"/>
<path d="M2835 3550 c-8 -13 3 -30 18 -30 8 0 7 3 -2 9 -7 5 -10 14 -7 20 4 6
5 11 2 11 -3 0 -8 -4 -11 -10z"/>
<path d="M3056 3547 c3 -10 9 -15 12 -12 3 3 0 11 -7 18 -10 9 -11 8 -5 -6z"/>
<path d="M1380 3541 c0 -5 5 -13 10 -16 6 -3 10 -2 10 4 0 5 -4 13 -10 16 -5
3 -10 2 -10 -4z"/>
<path d="M1454 3531 c18 -20 7 -38 -16 -25 -10 5 -10 4 -1 -6 9 -10 18 -8 42
9 17 13 31 25 31 28 0 3 -6 0 -14 -6 -10 -9 -16 -8 -26 4 -7 8 -17 15 -23 15
-5 0 -2 -9 7 -19z"/>
<path d="M1312 3520 c7 -11 17 -20 22 -20 5 0 1 9 -9 20 -10 11 -20 20 -22 20
-2 0 2 -9 9 -20z"/>
<path d="M2924 3529 c-3 -6 -2 -15 3 -20 5 -5 9 -1 9 11 0 23 -2 24 -12 9z"/>
<path d="M1207 3481 c-34 -34 -46 -53 -41 -65 4 -10 13 -15 22 -11 9 3 28 -6
46 -22 l31 -28 -30 33 c-16 18 -35 30 -42 28 -7 -3 -15 0 -19 6 -9 14 44 61
58 52 7 -5 8 -2 4 5 -5 7 0 21 10 32 34 37 8 18 -39 -30z"/>
<path d="M1276 3488 c3 -5 10 -6 15 -3 13 9 11 12 -6 12 -8 0 -12 -4 -9 -9z"/>
<path d="M1363 3475 c7 -14 18 -25 25 -25 9 0 8 7 -4 25 -21 32 -36 32 -21 0z"/>
<path d="M3060 3490 c-8 -5 -12 -12 -9 -15 4 -3 12 1 19 10 14 17 11 19 -10 5z"/>
<path d="M2943 3475 c-7 -8 -9 -16 -5 -19 4 -3 13 4 20 15 14 22 3 25 -15 4z"/>
<path d="M3000 3475 c-11 -13 -10 -14 4 -9 9 3 16 10 16 15 0 13 -6 11 -20 -6z"/>
<path d="M1220 3453 c0 -16 58 -65 68 -59 6 4 13 2 17 -4 4 -6 11 -7 17 -4 15
9 -13 25 -33 18 -11 -3 -27 7 -43 26 -14 18 -26 28 -26 23z"/>
<path d="M1265 3440 c10 -11 20 -20 23 -20 3 0 -3 9 -13 20 -10 11 -20 20 -23
20 -3 0 3 -9 13 -20z"/>
<path d="M3037 3415 c-15 -14 -24 -25 -19 -25 5 0 19 11 32 25 30 32 23 32
-13 0z"/>
<path d="M3119 3403 l-34 -38 38 34 c34 33 42 41 34 41 -2 0 -19 -17 -38 -37z"/>
<path d="M1349 3413 c-13 -16 -12 -17 4 -4 9 7 17 15 17 17 0 8 -8 3 -21 -13z"/>
<path d="M1124 3388 l-19 -23 23 19 c12 11 22 21 22 23 0 8 -8 2 -26 -19z"/>
<path d="M1166 3355 c7 -18 6 -19 -12 -5 -18 14 -18 14 -5 -3 10 -12 17 -15
25 -7 7 7 6 14 -3 23 -10 10 -11 8 -5 -8z"/>
<path d="M3115 3349 c-4 -6 -5 -12 -2 -15 2 -3 7 2 10 11 7 17 1 20 -8 4z"/>
<path d="M1270 3340 c-9 -6 -10 -10 -3 -10 6 0 15 5 18 10 8 12 4 12 -15 0z"/>
<path d="M1120 3326 c0 -2 8 -10 18 -17 15 -13 16 -12 3 4 -13 16 -21 21 -21
13z"/>
<path d="M1203 3304 c22 -27 22 -38 -3 -31 -21 5 -27 -7 -9 -19 6 -3 18 1 27
10 15 15 14 18 -8 39 -20 18 -22 19 -7 1z"/>
<path d="M3139 3289 c-23 -19 -23 -20 -2 -10 12 6 25 16 28 21 10 16 -1 12
-26 -11z"/>
<path d="M3259 3273 c-13 -16 -12 -17 4 -4 16 13 21 21 13 21 -2 0 -10 -8 -17
-17z"/>
<path d="M3200 3269 c0 -5 5 -7 10 -4 6 3 10 8 10 11 0 2 -4 4 -10 4 -5 0 -10
-5 -10 -11z"/>
<path d="M1065 3240 c10 -11 20 -20 23 -20 3 0 -3 9 -13 20 -10 11 -20 20 -23
20 -3 0 3 -9 13 -20z"/>
<path d="M1107 3249 c7 -7 15 -10 18 -7 3 3 -2 9 -12 12 -14 6 -15 5 -6 -5z"/>
<path d="M3210 3215 c-12 -13 -27 -22 -33 -18 -6 3 -7 1 -3 -5 11 -18 20 -14
44 18 27 36 24 39 -8 5z"/>
<path d="M1000 3201 c0 -6 4 -13 10 -16 6 -3 7 1 4 9 -7 18 -14 21 -14 7z"/>
<path d="M1110 3182 c0 -10 22 -32 32 -32 15 0 8 15 -12 28 -11 7 -20 9 -20 4z"/>
<path d="M3251 3181 c-8 -6 -9 -11 -3 -15 6 -3 14 -1 17 5 9 14 2 20 -14 10z"/>
<path d="M3297 3173 c-4 -3 -7 -11 -7 -17 0 -6 5 -5 12 2 6 6 9 14 7 17 -3 3
-9 2 -12 -2z"/>
<path d="M3229 3133 c-13 -16 -12 -17 4 -4 9 7 17 15 17 17 0 8 -8 3 -21 -13z"/>
<path d="M3302 3123 c-7 -2 -17 -14 -23 -25 -10 -18 -8 -18 20 3 39 28 40 37
3 22z"/>
<path d="M964 3108 c-4 -7 -4 -10 1 -6 4 4 14 3 22 -4 7 -6 17 -8 20 -4 4 4 1
11 -7 16 -20 13 -27 12 -36 -2z"/>
<path d="M1046 3075 c6 -15 42 -27 48 -16 3 4 -8 12 -24 18 -22 8 -27 8 -24
-2z"/>
<path d="M3395 2950 c-3 -5 -1 -10 4 -10 6 0 11 5 11 10 0 6 -2 10 -4 10 -3 0
-8 -4 -11 -10z"/>
<path d="M3335 2930 c-3 -5 -1 -10 4 -10 6 0 11 5 11 10 0 6 -2 10 -4 10 -3 0
-8 -4 -11 -10z"/>
<path d="M1025 2920 c-16 -7 -17 -9 -3 -9 9 -1 20 4 23 9 7 11 7 11 -20 0z"/>
<path d="M950 2916 c0 -2 7 -6 15 -10 8 -3 15 -1 15 4 0 6 -7 10 -15 10 -8 0
-15 -2 -15 -4z"/>
<path d="M908 2773 c7 -3 16 -2 19 1 4 3 -2 6 -13 5 -11 0 -14 -3 -6 -6z"/>
<path d="M3475 2680 c-3 -5 -1 -10 4 -10 6 0 11 5 11 10 0 6 -2 10 -4 10 -3 0
-8 -4 -11 -10z"/>
<path d="M3440 2670 c0 -5 5 -10 10 -10 6 0 10 5 10 10 0 6 -4 10 -10 10 -5 0
-10 -4 -10 -10z"/>
<path d="M3384 2598 l-19 -23 23 19 c21 18 27 26 19 26 -2 0 -12 -10 -23 -22z"/>
<path d="M936 2323 c-8 -25 27 -139 42 -135 7 1 12 -5 12 -14 0 -20 16 -10 23
15 4 15 0 18 -19 16 -21 -2 -24 3 -30 54 -8 69 -19 93 -28 64z"/>
<path d="M3386 2318 c-24 -118 -28 -127 -47 -123 -22 4 -24 -4 -6 -29 11 -16
15 -13 36 24 12 22 25 65 28 95 6 54 -2 77 -11 33z"/>
<path d="M940 2137 c0 -9 17 -32 38 -52 30 -28 34 -36 22 -44 -19 -13 -9 -22
18 -15 20 6 20 8 8 33 -22 40 -86 99 -86 78z"/>
<path d="M3352 2106 c-44 -48 -67 -85 -58 -94 3 -3 6 0 6 7 0 7 9 9 28 5 24
-7 26 -6 13 9 -11 14 -8 22 23 59 32 37 44 58 32 58 -2 0 -22 -20 -44 -44z"/>
<path d="M1055 2090 c-16 -26 31 -130 60 -130 8 0 15 5 15 10 0 6 -9 10 -20
10 -14 0 -21 9 -26 38 -4 20 -8 45 -10 56 -4 25 -10 30 -19 16z"/>
<path d="M3265 2059 c-12 -60 -16 -68 -37 -74 -14 -5 -17 -10 -9 -18 7 -7 16
-4 31 13 11 13 20 24 20 24 0 1 4 15 9 32 5 17 5 37 1 44 -5 8 -10 1 -15 -21z"/>
<path d="M1039 1941 c11 -7 11 -9 0 -14 -11 -4 -11 -6 0 -6 8 -1 30 -17 48
-37 26 -29 31 -40 22 -50 -9 -11 -8 -14 2 -14 39 1 40 17 4 61 -41 49 -64 69
-79 69 -6 0 -5 -4 3 -9z"/>
<path d="M3246 1898 c-43 -44 -95 -115 -64 -90 8 7 23 10 32 6 12 -5 16 0 16
19 0 15 11 34 28 49 15 12 28 27 29 32 1 5 7 13 15 17 10 7 10 9 0 9 -7 0 -32
-19 -56 -42z"/>
<path d="M3164 1897 c3 -10 0 -20 -7 -23 -6 -2 -13 -21 -14 -41 -2 -33 -23
-75 -23 -44 0 8 -5 7 -17 -4 -13 -13 -14 -18 -3 -25 16 -10 52 31 70 81 10 28
10 40 1 55 -11 16 -12 17 -7 1z"/>
<path d="M1160 1873 c0 -10 9 -36 20 -58 l19 -40 -5 40 c-8 57 -14 75 -25 75
-5 0 -9 -8 -9 -17z"/>
<path d="M1210 1773 c0 -8 5 -13 12 -11 18 6 21 25 3 25 -8 0 -15 -7 -15 -14z"/>
<path d="M1201 1743 c7 -12 15 -20 18 -17 3 2 -3 12 -13 22 -17 16 -18 16 -5
-5z"/>
<path d="M1261 1742 c-1 -29 23 -78 57 -114 32 -35 42 -35 42 -2 0 14 -4 23
-10 19 -6 -4 -8 -12 -4 -18 3 -7 -6 1 -21 17 -14 15 -29 41 -32 57 -3 16 -9
26 -14 24 -4 -3 -10 5 -12 17 l-4 23 -2 -23z"/>
<path d="M3035 1693 c-20 -39 -36 -58 -47 -57 -10 1 -18 -4 -18 -12 0 -21 24
-17 47 9 28 30 55 85 51 103 -2 8 -16 -12 -33 -43z"/>
<path d="M1175 1670 c-3 -5 -4 -11 -1 -11 3 -1 11 -3 16 -4 6 -1 19 -3 30 -4
11 0 24 -11 29 -23 4 -12 10 -17 13 -12 8 12 -11 38 -39 52 -27 15 -40 15 -48
2z"/>
<path d="M3086 1655 c-30 -28 -30 -29 -13 -44 11 -8 13 -6 13 12 -1 15 6 23
21 25 12 2 27 10 33 18 22 25 -24 17 -54 -11z"/>
<path d="M1305 1610 c10 -11 20 -20 23 -20 3 0 -3 9 -13 20 -10 11 -20 20 -23
20 -3 0 3 -9 13 -20z"/>
<path d="M3014 1608 l-19 -23 23 19 c21 18 27 26 19 26 -2 0 -12 -10 -23 -22z"/>
<path d="M1410 1601 c0 -5 5 -22 10 -37 15 -39 -4 -60 -36 -39 -13 8 -33 15
-46 15 -29 0 -12 -17 22 -22 14 -1 26 -9 26 -15 1 -7 2 -18 3 -23 0 -6 7 -10
14 -9 11 2 28 -3 72 -21 11 -5 33 -11 50 -13 26 -5 27 -4 12 8 -10 7 -15 19
-11 29 10 27 -18 106 -38 106 -9 0 -20 -4 -23 -10 -4 -6 -13 -5 -25 2 -10 7
-17 15 -14 19 2 4 0 10 -6 14 -5 3 -10 2 -10 -4z m67 -99 c1 -11 -6 -18 -18
-19 -21 -2 -26 22 -6 30 20 9 23 8 24 -11z"/>
<path d="M2910 1594 c0 -8 -4 -12 -10 -9 -5 3 -10 1 -10 -4 0 -6 -11 -11 -23
-11 -14 0 -41 -17 -66 -41 -41 -38 -42 -41 -26 -59 9 -10 14 -24 10 -30 -6 -9
-2 -9 13 -1 15 8 27 7 49 -4 25 -13 28 -13 35 3 10 27 9 60 -3 64 -6 2 -2 14
10 29 20 26 38 79 27 79 -3 0 -6 -7 -6 -16z m-67 -104 c4 -14 0 -20 -12 -20
-25 0 -33 11 -20 27 16 18 26 16 32 -7z"/>
<path d="M1341 1577 c2 -1 13 -9 24 -17 19 -14 19 -14 6 3 -7 9 -18 17 -24 17
-6 0 -8 -1 -6 -3z"/>
<path d="M2959 1563 c-13 -16 -12 -17 4 -4 9 7 17 15 17 17 0 8 -8 3 -21 -13z"/>
<path d="M2937 1520 c-17 -14 -23 -26 -20 -40 7 -28 21 -25 16 4 -4 19 1 25
27 35 18 6 36 8 41 5 5 -3 9 0 9 5 0 18 -46 12 -73 -9z"/>
<path d="M1710 1418 c-30 -11 -57 -21 -59 -23 -1 -2 9 -16 23 -32 15 -15 37
-43 49 -61 23 -34 39 -40 167 -68 184 -41 559 -22 696 35 17 7 84 107 84 125
0 6 -111 31 -125 29 -5 -1 -59 -14 -120 -27 -181 -42 -409 -32 -586 24 -72 23
-60 23 -129 -2z m158 -34 c26 -17 29 -46 6 -65 -14 -11 -13 -14 8 -25 40 -23
101 -15 91 12 -4 10 0 12 11 8 21 -8 21 -30 0 -38 -45 -17 -144 9 -144 38 0 9
5 16 11 16 25 0 2 46 -31 63 -35 18 -35 18 -5 12 17 -4 40 -13 53 -21z m690
-11 c-2 -11 -28 -28 -67 -44 -36 -14 -67 -31 -69 -39 -3 -9 1 -11 12 -7 45 19
52 19 31 2 -24 -19 -70 -16 -70 5 0 8 26 24 64 38 40 16 65 31 68 43 7 24 36
25 31 2z m-308 -49 c0 -17 -57 -44 -94 -44 -35 0 -42 -18 -9 -23 16 -3 -6 -4
-47 -3 -93 1 -101 20 -20 47 53 18 90 17 90 -1 0 -5 14 -4 30 1 17 6 30 17 30
25 0 8 5 14 10 14 6 0 10 -7 10 -16z m288 -14 c3 -9 -1 -11 -12 -7 -10 4 -15
3 -11 -3 3 -6 -1 -10 -9 -10 -19 0 -21 26 -3 33 17 7 30 3 35 -13z m-582 -2
c5 -7 2 -9 -8 -5 -9 3 -20 1 -25 -4 -11 -11 -43 -2 -43 12 0 13 68 11 76 -3z
m349 -28 c-2 -12 2 -20 10 -20 21 0 28 19 15 35 -13 16 -3 19 24 9 25 -10 19
-32 -14 -49 -35 -18 -156 -33 -147 -18 3 5 21 8 39 6 32 -4 32 -4 10 10 -23
13 -23 15 -6 31 11 12 25 15 41 11 18 -4 23 -2 17 6 -4 7 -3 9 4 5 6 -3 9 -15
7 -26z"/>
<path d="M2060 1280 c-8 -5 -11 -12 -8 -15 4 -4 17 0 30 9 24 17 5 23 -22 6z"/>
<path d="M2257 1283 c-10 -9 -9 -23 2 -23 5 0 11 7 15 15 5 15 -5 20 -17 8z"/>
<path d="M700 2100 c0 -3 -5 -50 -9 -105 -12 -133 -50 -502 -57 -542 -3 -18
-10 -33 -17 -33 -9 1 -183 141 -332 268 -67 57 -188 153 -190 150 -5 -5 22
-160 40 -228 37 -144 92 -273 171 -402 98 -162 210 -293 342 -400 76 -63 100
-68 136 -33 8 8 17 15 21 15 3 0 42 25 88 55 45 30 89 55 97 55 8 0 29 -9 45
-20 59 -40 241 -128 340 -165 106 -39 320 -95 445 -114 192 -31 529 -24 730
15 203 39 435 118 580 197 104 56 147 82 162 95 16 14 24 11 88 -31 38 -26 73
-47 76 -47 3 0 23 -13 44 -30 21 -16 41 -30 46 -30 4 0 15 -7 24 -15 16 -14
23 -12 76 29 33 24 98 84 145 133 216 224 351 474 409 758 27 132 32 165 25
165 -6 0 -172 -136 -335 -274 -168 -143 -200 -164 -200 -138 0 5 -4 44 -9 88
-6 43 -15 126 -20 184 -19 183 -42 384 -45 387 -1 2 -17 -36 -35 -85 -94 -248
-258 -473 -471 -644 -57 -46 -175 -128 -184 -128 -3 0 -27 -13 -54 -29 -106
-63 -296 -128 -457 -158 -107 -20 -385 -22 -485 -4 -334 60 -615 203 -841 430
-148 148 -264 323 -334 503 -43 111 -53 135 -55 128z m50 -204 c30 -75 124
-227 195 -317 143 -179 323 -323 530 -424 254 -125 483 -174 754 -162 570 25
1082 362 1327 872 46 95 43 89 48 84 2 -2 17 -137 32 -299 15 -162 28 -296 30
-298 1 -2 64 47 140 110 75 62 191 157 257 211 l120 99 -7 -51 c-18 -138 -113
-380 -208 -530 -73 -117 -187 -252 -278 -329 l-65 -55 -6 39 c-4 21 -13 104
-19 184 -7 80 -15 147 -16 149 -2 2 -32 -22 -66 -54 -485 -450 -1212 -620
-1904 -445 -320 81 -619 240 -830 442 l-42 40 -6 -28 c-3 -16 -10 -81 -16
-144 -6 -63 -13 -130 -16 -148 l-5 -33 -27 20 c-55 39 -206 201 -268 287 -111
155 -215 390 -255 577 -7 31 -9 60 -6 63 5 6 400 -310 474 -379 18 -17 35 -29
37 -26 2 2 17 138 32 302 15 163 31 297 35 297 4 0 17 -24 29 -54z"/>
<path d="M907 1289 l-158 -80 26 -32 c46 -55 166 -157 259 -219 439 -297 1064
-395 1633 -258 319 77 626 242 821 442 l64 65 -164 80 -163 80 -60 -55 c-170
-153 -402 -264 -675 -324 -92 -19 -134 -22 -340 -23 -210 0 -247 3 -344 24
-270 57 -509 173 -674 326 -33 30 -61 55 -63 54 -2 0 -75 -36 -162 -80z m246
-50 c27 -14 37 -28 37 -51 0 -25 -13 -22 -25 4 -6 13 -18 24 -27 26 -15 3 -16
-1 -10 -19 7 -18 1 -30 -36 -66 -30 -31 -42 -50 -39 -63 8 -31 -17 -43 -43
-22 l-22 18 63 61 c61 59 63 62 46 81 -22 24 -22 30 6 35 12 2 23 5 25 6 2 0
13 -4 25 -10z m2151 -92 c47 -44 47 -61 0 -53 -19 4 -42 10 -50 13 -8 3 -14
-1 -14 -11 0 -9 6 -13 13 -10 8 3 19 -1 25 -9 9 -11 7 -18 -9 -33 -21 -19 -21
-18 -40 5 -10 13 -19 37 -19 53 0 29 2 30 35 26 27 -3 32 -1 23 9 -24 29 -83
-4 -76 -42 2 -10 -3 -20 -9 -22 -20 -7 -16 51 5 70 16 14 57 35 73 36 4 1 23
-14 43 -32z m-2097 -81 c35 -30 24 -46 -13 -17 -39 30 -52 26 -21 -7 l27 -28
-29 -28 c-24 -24 -32 -26 -50 -17 -37 20 -16 60 24 45 26 -10 16 14 -15 37
-16 12 -27 26 -24 31 11 17 73 8 101 -16z m1943 5 c0 -5 12 -23 26 -40 15 -18
22 -36 18 -43 -5 -8 -19 2 -44 31 -33 38 -40 42 -59 32 -11 -7 -21 -18 -21
-26 0 -21 -19 -29 -26 -10 -10 26 34 65 73 65 18 0 33 -4 33 -9z m-112 -97
c18 -25 30 -49 27 -53 -7 -12 -92 -51 -110 -51 -9 0 -14 4 -11 8 9 14 -23 50
-46 54 -29 4 -34 24 -8 38 25 13 43 2 66 -42 16 -31 31 -35 59 -15 17 13 17
16 -9 53 -29 43 -32 54 -13 54 7 0 28 -21 45 -46z m-1712 22 c6 -16 -40 -92
-61 -100 -7 -2 -18 1 -23 7 -13 17 -35 87 -29 94 11 10 26 -7 32 -37 11 -52
38 -30 28 23 -5 24 -2 27 21 27 15 0 29 -6 32 -14z m231 -9 c13 5 14 0 8 -28
-4 -19 -9 -36 -11 -38 -1 -2 -23 6 -47 18 -24 11 -49 21 -55 21 -7 0 -12 5
-12 10 0 17 42 28 73 19 15 -4 35 -5 44 -2z m1254 -7 c29 -16 23 -24 -23 -37
-24 -6 -53 -14 -65 -18 -33 -10 -30 18 3 44 29 23 55 26 85 11z m-1411 -16 c0
-3 -9 -17 -20 -31 -15 -20 -17 -29 -9 -39 6 -8 9 -21 5 -30 -8 -21 -50 -14
-54 9 -5 23 44 97 63 97 8 0 15 -3 15 -6z m131 -49 c16 -9 27 -20 24 -25 -4
-6 -18 -4 -35 5 -43 22 -60 18 -22 -5 37 -23 37 -22 17 -60 -17 -32 -45 -39
-65 -15 -15 18 -5 35 21 35 31 0 22 20 -18 37 -35 14 -36 16 -18 29 25 18 59
18 96 -1z m1342 -28 c20 -49 21 -57 7 -57 -5 0 -20 18 -32 40 -18 31 -29 40
-49 40 -15 0 -33 -7 -40 -16 -12 -15 -11 -16 8 -10 17 5 22 3 22 -11 1 -10 2
-31 3 -48 3 -25 -1 -31 -21 -33 -36 -5 -48 13 -26 38 19 20 18 21 -3 27 -28 7
-28 18 3 48 18 19 35 25 67 25 41 0 44 -2 61 -43z m-1228 -22 c0 -14 -6 -20
-22 -19 -12 0 -20 -3 -17 -8 3 -4 14 -8 25 -8 10 0 19 -4 19 -10 0 -5 -12 -10
-26 -10 -31 0 -28 -19 5 -31 23 -9 28 -2 54 74 11 31 30 19 24 -15 -14 -87
-30 -99 -98 -77 -19 6 -40 13 -47 15 -11 3 -10 8 1 25 8 11 13 29 10 40 -7 27
16 51 46 47 18 -2 26 -9 26 -23z m1021 9 c13 -3 24 -17 28 -32 3 -15 8 -37 12
-49 5 -17 2 -23 -9 -23 -9 0 -21 17 -29 43 -17 48 -38 57 -67 28 -25 -25 -31
-26 -31 -7 0 17 38 46 60 46 8 0 25 -3 36 -6z m-116 -13 c0 -6 -4 -12 -9 -15
-4 -3 -2 -26 7 -51 8 -27 11 -50 6 -55 -5 -5 -30 -11 -55 -15 -46 -7 -46 -7
-46 21 0 16 6 39 14 51 19 28 10 30 -17 3 -20 -20 -50 -17 -50 5 0 23 29 37
65 33 25 -3 40 1 52 14 17 20 33 24 33 9z m-470 -50 c0 -27 -3 -63 -6 -80 -6
-31 -7 -31 -70 -31 -59 0 -87 11 -64 25 16 10 12 47 -7 60 -23 17 -10 47 19
43 20 -3 23 -10 26 -55 3 -51 4 -53 31 -53 33 0 41 18 41 93 0 35 4 47 15 47
11 0 15 -12 15 -49z m-286 -3 c-1 -35 1 -38 28 -38 24 0 29 5 35 30 10 53 31
36 31 -25 -1 -51 -3 -56 -26 -62 -19 -4 -30 -1 -43 16 -15 18 -21 20 -43 10
-29 -14 -46 -5 -28 13 15 15 16 58 2 58 -5 0 -10 9 -10 21 0 16 5 20 28 17 24
-3 27 -7 26 -40z m420 6 c30 -12 16 -23 -21 -18 -29 4 -34 3 -23 -5 8 -6 25
-11 38 -11 18 0 22 -5 22 -34 0 -39 -20 -60 -50 -51 -25 8 -26 31 -3 44 24 13
9 25 -32 25 -40 0 -46 17 -13 40 23 17 55 20 82 10z m96 -9 c12 -14 15 -14 31
1 11 10 22 14 27 10 12 -12 -38 -46 -68 -46 -34 0 -55 21 -38 38 16 16 33 15
48 -3z m65 -75 c-32 -35 -115 -37 -115 -4 0 21 28 29 55 14 20 -11 26 -10 40
4 23 22 41 9 20 -14z"/>
<path d="M1125 990 c3 -5 8 -10 11 -10 2 0 4 5 4 10 0 6 -5 10 -11 10 -5 0 -7
-4 -4 -10z"/>
<path d="M1494 966 c23 -18 36 -20 36 -6 0 6 -4 10 -9 10 -5 0 -18 3 -28 6
-16 5 -16 4 1 -10z"/>
<path d="M2740 960 c-13 -9 -13 -10 0 -9 8 0 24 4 35 9 l20 9 -20 0 c-11 0
-27 -4 -35 -9z"/>
<path d="M2420 810 c0 -5 5 -10 11 -10 5 0 7 5 4 10 -3 6 -8 10 -11 10 -2 0
-4 -4 -4 -10z"/>
<path d="M2492 790 c-14 -23 -8 -40 14 -40 9 0 14 11 14 30 0 35 -10 38 -28
10z"/>
<path d="M1760 830 c0 -5 5 -10 11 -10 5 0 7 5 4 10 -3 6 -8 10 -11 10 -2 0
-4 -4 -4 -10z"/>
<path d="M1840 740 c0 -5 4 -10 9 -10 6 0 13 5 16 10 3 6 -1 10 -9 10 -9 0
-16 -4 -16 -10z"/>
</g>
</svg>
